<?xml version="1.0" standalone="no"?>
<svg xmlns:xlink="http://www.w3.org/1999/xlink" id="wave" style="transform:rotate(180deg); transition: 0.3s" viewBox="0 0 1440 120" version="1.1" xmlns="http://www.w3.org/2000/svg"><defs><linearGradient id="sw-gradient-0" x1="0" x2="0" y1="1" y2="0"><stop stop-color="rgba(213, 180, 81, 1)" offset="0%"/><stop stop-color="rgba(16.355, 11.261, 0, 1)" offset="100%"/></linearGradient></defs><path style="transform:translate(0, 0px); opacity:1" fill="url(#sw-gradient-0)" d="M0,0L26.7,18C53.3,36,107,72,160,80C213.3,88,267,68,320,68C373.3,68,427,88,480,90C533.3,92,587,76,640,60C693.3,44,747,28,800,36C853.3,44,907,76,960,90C1013.3,104,1067,100,1120,82C1173.3,64,1227,32,1280,26C1333.3,20,1387,40,1440,42C1493.3,44,1547,28,1600,32C1653.3,36,1707,60,1760,66C1813.3,72,1867,60,1920,46C1973.3,32,2027,16,2080,26C2133.3,36,2187,72,2240,72C2293.3,72,2347,36,2400,30C2453.3,24,2507,48,2560,48C2613.3,48,2667,24,2720,18C2773.3,12,2827,24,2880,32C2933.3,40,2987,44,3040,42C3093.3,40,3147,32,3200,34C3253.3,36,3307,48,3360,60C3413.3,72,3467,84,3520,74C3573.3,64,3627,32,3680,24C3733.3,16,3787,32,3813,40L3840,48L3840,120L3813.3,120C3786.7,120,3733,120,3680,120C3626.7,120,3573,120,3520,120C3466.7,120,3413,120,3360,120C3306.7,120,3253,120,3200,120C3146.7,120,3093,120,3040,120C2986.7,120,2933,120,2880,120C2826.7,120,2773,120,2720,120C2666.7,120,2613,120,2560,120C2506.7,120,2453,120,2400,120C2346.7,120,2293,120,2240,120C2186.7,120,2133,120,2080,120C2026.7,120,1973,120,1920,120C1866.7,120,1813,120,1760,120C1706.7,120,1653,120,1600,120C1546.7,120,1493,120,1440,120C1386.7,120,1333,120,1280,120C1226.7,120,1173,120,1120,120C1066.7,120,1013,120,960,120C906.7,120,853,120,800,120C746.7,120,693,120,640,120C586.7,120,533,120,480,120C426.7,120,373,120,320,120C266.7,120,213,120,160,120C106.7,120,53,120,27,120L0,120Z"/></svg>